<mxfile host="Electron" modified="2023-04-23T15:06:27.904Z" agent="Mozilla/5.0 (Macintosh; Intel Mac OS X 10_15_7) AppleWebKit/537.36 (KHTML, like Gecko) draw.io/21.2.1 Chrome/112.0.5615.87 Electron/24.1.2 Safari/537.36" etag="4IHowSJMoZxjY5Ig_cEy" version="21.2.1" type="device">
  <diagram name="Страница 1" id="6tMGNJNM4NKZPwXtHnVI">
    <mxGraphModel dx="438" dy="595" grid="1" gridSize="10" guides="1" tooltips="1" connect="1" arrows="1" fold="1" page="1" pageScale="1" pageWidth="827" pageHeight="1169" math="0" shadow="0">
      <root>
        <mxCell id="0" />
        <mxCell id="1" parent="0" />
        <mxCell id="Q8PbNGjHBaHUHqc-n6fm-44" style="edgeStyle=orthogonalEdgeStyle;rounded=0;orthogonalLoop=1;jettySize=auto;html=1;entryX=0.5;entryY=0;entryDx=0;entryDy=0;" parent="1" edge="1">
          <mxGeometry relative="1" as="geometry">
            <mxPoint x="200.0000000000001" y="260" as="sourcePoint" />
          </mxGeometry>
        </mxCell>
        <mxCell id="Q8PbNGjHBaHUHqc-n6fm-45" style="edgeStyle=orthogonalEdgeStyle;rounded=0;orthogonalLoop=1;jettySize=auto;html=1;entryX=0.5;entryY=0;entryDx=0;entryDy=0;" parent="1" edge="1">
          <mxGeometry relative="1" as="geometry">
            <mxPoint x="200.0000000000001" y="360" as="sourcePoint" />
          </mxGeometry>
        </mxCell>
        <mxCell id="Q8PbNGjHBaHUHqc-n6fm-53" style="edgeStyle=orthogonalEdgeStyle;rounded=0;orthogonalLoop=1;jettySize=auto;html=1;entryX=0.5;entryY=0;entryDx=0;entryDy=0;" parent="1" edge="1">
          <mxGeometry relative="1" as="geometry">
            <mxPoint x="200.0000000000001" y="460" as="sourcePoint" />
          </mxGeometry>
        </mxCell>
        <mxCell id="Q8PbNGjHBaHUHqc-n6fm-54" style="edgeStyle=orthogonalEdgeStyle;rounded=0;orthogonalLoop=1;jettySize=auto;html=1;" parent="1" edge="1">
          <mxGeometry relative="1" as="geometry">
            <mxPoint x="200.0000000000001" y="560" as="sourcePoint" />
          </mxGeometry>
        </mxCell>
        <mxCell id="Q8PbNGjHBaHUHqc-n6fm-50" style="edgeStyle=orthogonalEdgeStyle;rounded=0;orthogonalLoop=1;jettySize=auto;html=1;entryX=0.5;entryY=0;entryDx=0;entryDy=0;" parent="1" edge="1">
          <mxGeometry relative="1" as="geometry">
            <mxPoint x="200.0000000000001" y="660" as="sourcePoint" />
          </mxGeometry>
        </mxCell>
        <mxCell id="Q8PbNGjHBaHUHqc-n6fm-51" style="edgeStyle=orthogonalEdgeStyle;rounded=0;orthogonalLoop=1;jettySize=auto;html=1;entryX=0.5;entryY=0;entryDx=0;entryDy=0;" parent="1" edge="1">
          <mxGeometry relative="1" as="geometry">
            <mxPoint x="200.0000000000001" y="760" as="sourcePoint" />
          </mxGeometry>
        </mxCell>
        <mxCell id="Q8PbNGjHBaHUHqc-n6fm-52" style="edgeStyle=orthogonalEdgeStyle;rounded=0;orthogonalLoop=1;jettySize=auto;html=1;entryX=0;entryY=0.5;entryDx=0;entryDy=0;" parent="1" edge="1">
          <mxGeometry relative="1" as="geometry">
            <mxPoint x="100" y="630" as="targetPoint" />
            <Array as="points">
              <mxPoint x="200" y="880" />
              <mxPoint x="60" y="880" />
              <mxPoint x="60" y="630" />
            </Array>
          </mxGeometry>
        </mxCell>
        <mxCell id="Q8PbNGjHBaHUHqc-n6fm-101" style="edgeStyle=orthogonalEdgeStyle;rounded=0;orthogonalLoop=1;jettySize=auto;html=1;entryX=0.5;entryY=0;entryDx=0;entryDy=0;fontSize=15;" parent="1" target="Q8PbNGjHBaHUHqc-n6fm-100" edge="1">
          <mxGeometry relative="1" as="geometry">
            <mxPoint x="80" y="880" as="sourcePoint" />
          </mxGeometry>
        </mxCell>
        <mxCell id="Q8PbNGjHBaHUHqc-n6fm-117" style="edgeStyle=orthogonalEdgeStyle;rounded=0;orthogonalLoop=1;jettySize=auto;html=1;entryX=0.5;entryY=0;entryDx=0;entryDy=0;fontSize=15;" parent="1" target="Q8PbNGjHBaHUHqc-n6fm-35" edge="1">
          <mxGeometry relative="1" as="geometry">
            <Array as="points">
              <mxPoint x="260" y="650.0000000000005" />
              <mxPoint x="260" y="1511" />
            </Array>
            <mxPoint x="179.69696969697134" y="650.0909090909086" as="sourcePoint" />
          </mxGeometry>
        </mxCell>
        <mxCell id="Q8PbNGjHBaHUHqc-n6fm-116" style="edgeStyle=orthogonalEdgeStyle;rounded=0;orthogonalLoop=1;jettySize=auto;html=1;entryX=0;entryY=0.5;entryDx=0;entryDy=0;fontSize=15;" parent="1" source="Q8PbNGjHBaHUHqc-n6fm-114" edge="1">
          <mxGeometry relative="1" as="geometry">
            <Array as="points">
              <mxPoint x="80" y="1460" />
              <mxPoint x="-100" y="1460" />
              <mxPoint x="-100" y="650" />
            </Array>
            <mxPoint x="-20" y="650" as="targetPoint" />
          </mxGeometry>
        </mxCell>
        <mxCell id="wm96Qt1JqF1Xcq8qNvsb-121" style="edgeStyle=orthogonalEdgeStyle;rounded=0;orthogonalLoop=1;jettySize=auto;html=1;" edge="1" parent="1" source="wm96Qt1JqF1Xcq8qNvsb-118" target="wm96Qt1JqF1Xcq8qNvsb-119">
          <mxGeometry relative="1" as="geometry" />
        </mxCell>
        <mxCell id="wm96Qt1JqF1Xcq8qNvsb-118" value="Начало" style="rounded=1;whiteSpace=wrap;html=1;arcSize=50;" vertex="1" parent="1">
          <mxGeometry x="240" y="130" width="200" height="30" as="geometry" />
        </mxCell>
        <mxCell id="wm96Qt1JqF1Xcq8qNvsb-122" style="edgeStyle=orthogonalEdgeStyle;rounded=0;orthogonalLoop=1;jettySize=auto;html=1;entryX=0.5;entryY=0;entryDx=0;entryDy=0;" edge="1" parent="1" source="wm96Qt1JqF1Xcq8qNvsb-119" target="wm96Qt1JqF1Xcq8qNvsb-120">
          <mxGeometry relative="1" as="geometry" />
        </mxCell>
        <mxCell id="wm96Qt1JqF1Xcq8qNvsb-119" value="Объявление словаря team с предварительно записанными данными" style="rounded=0;whiteSpace=wrap;html=1;" vertex="1" parent="1">
          <mxGeometry x="240" y="200" width="200" height="60" as="geometry" />
        </mxCell>
        <mxCell id="wm96Qt1JqF1Xcq8qNvsb-124" style="edgeStyle=orthogonalEdgeStyle;rounded=0;orthogonalLoop=1;jettySize=auto;html=1;entryX=0.5;entryY=0;entryDx=0;entryDy=0;" edge="1" parent="1" source="wm96Qt1JqF1Xcq8qNvsb-120" target="wm96Qt1JqF1Xcq8qNvsb-123">
          <mxGeometry relative="1" as="geometry" />
        </mxCell>
        <mxCell id="wm96Qt1JqF1Xcq8qNvsb-127" style="edgeStyle=orthogonalEdgeStyle;rounded=0;orthogonalLoop=1;jettySize=auto;html=1;entryX=0.5;entryY=0;entryDx=0;entryDy=0;" edge="1" parent="1" source="wm96Qt1JqF1Xcq8qNvsb-120" target="wm96Qt1JqF1Xcq8qNvsb-125">
          <mxGeometry relative="1" as="geometry">
            <mxPoint x="340" y="490" as="targetPoint" />
            <Array as="points">
              <mxPoint x="200" y="330" />
              <mxPoint x="200" y="480" />
              <mxPoint x="340" y="480" />
            </Array>
          </mxGeometry>
        </mxCell>
        <mxCell id="wm96Qt1JqF1Xcq8qNvsb-120" value="__name__ == __main__" style="rhombus;whiteSpace=wrap;html=1;" vertex="1" parent="1">
          <mxGeometry x="240" y="300" width="200" height="60" as="geometry" />
        </mxCell>
        <mxCell id="wm96Qt1JqF1Xcq8qNvsb-126" style="edgeStyle=orthogonalEdgeStyle;rounded=0;orthogonalLoop=1;jettySize=auto;html=1;entryX=0.5;entryY=0;entryDx=0;entryDy=0;" edge="1" parent="1" source="wm96Qt1JqF1Xcq8qNvsb-123" target="wm96Qt1JqF1Xcq8qNvsb-125">
          <mxGeometry relative="1" as="geometry" />
        </mxCell>
        <mxCell id="wm96Qt1JqF1Xcq8qNvsb-123" value="Вызов подпрограммы&lt;br&gt;main()" style="shape=process;whiteSpace=wrap;html=1;backgroundOutline=1;" vertex="1" parent="1">
          <mxGeometry x="240" y="400" width="200" height="60" as="geometry" />
        </mxCell>
        <mxCell id="wm96Qt1JqF1Xcq8qNvsb-125" value="Конец" style="rounded=1;whiteSpace=wrap;html=1;arcSize=50;" vertex="1" parent="1">
          <mxGeometry x="240" y="500" width="200" height="30" as="geometry" />
        </mxCell>
        <mxCell id="wm96Qt1JqF1Xcq8qNvsb-128" value="Нет" style="text;html=1;align=center;verticalAlign=middle;resizable=0;points=[];autosize=1;strokeColor=none;fillColor=none;" vertex="1" parent="1">
          <mxGeometry x="210" y="298" width="40" height="30" as="geometry" />
        </mxCell>
        <mxCell id="wm96Qt1JqF1Xcq8qNvsb-129" value="Да" style="text;html=1;align=center;verticalAlign=middle;resizable=0;points=[];autosize=1;strokeColor=none;fillColor=none;" vertex="1" parent="1">
          <mxGeometry x="300" y="360" width="40" height="30" as="geometry" />
        </mxCell>
      </root>
    </mxGraphModel>
  </diagram>
</mxfile>
